# xmcd
#
# Track frame offsets: 
#        150
#        18377
#        33829
#        46358
#        58078
#        71038
#        89395
#        100964
#        118941
#        138416
#        156215
#        169760
#        183391
#        202405
#        216246
#        239038
#        255265
#        267185
#        278533
#        290418
#
# Disc length: 3883 seconds
#
# Revision: 0
# Processed by: cddbd v1.5.2PL0 Copyright (c) Steve Scherf et al.
# Submitted via: ExactAudioCopy v0.99pb3
#
DISCID=310f2914
DTITLE=Various Artist - Primal Event (1998 National Campus Band Competition, 
DTITLE=La Trobe University)
DYEAR=1998
DGENRE=Union Activities
TTITLE0=Snub Rocket - All Fools Away
TTITLE1=Snub Rocket - Clown
TTITLE2=Paris Trout - Silly Boyfriend
TTITLE3=Paris Trout - I Don't Mind
TTITLE4=Michelle Stockwell - Pink Bitch
TTITLE5=Michelle Stockwell - Everyday
TTITLE6=Travelling Hail - Visions Of Jodie
TTITLE7=Travelling Hail - My Polly Jean
TTITLE8=Busy Fingers - Little Rock
TTITLE9=Busy Fingers - Humbug
TTITLE10=20 Minutes - 10
TTITLE11=20 Minutes - 9
TTITLE12=Zoot Ax - Satan Is Gonna Steal Your Mind
TTITLE13=Zoot Ax - My Life On Floppy
TTITLE14=Suitcase - My Time
TTITLE15=Suitcase - Saturn
TTITLE16=God's Little Accidents - To Live And Die In Bundoora
TTITLE17=God's Little Accidents - Swallow
TTITLE18=God's Little Accidents - L.L.B.
TTITLE19=Unlisted Artist - Unlisted Track
EXTD=
EXTT0=
EXTT1=
EXTT2=
EXTT3=
EXTT4=
EXTT5=
EXTT6=
EXTT7=
EXTT8=
EXTT9=
EXTT10=
EXTT11=
EXTT12=
EXTT13=
EXTT14=
EXTT15=
EXTT16=
EXTT17=
EXTT18=
EXTT19=
PLAYORDER=
